<?xml version="1.0" standalone="no"?>
<!DOCTYPE svg PUBLIC "-//W3C//DTD SVG 20010904//EN"
 "http://www.w3.org/TR/2001/REC-SVG-20010904/DTD/svg10.dtd">
<svg version="1.0" xmlns="http://www.w3.org/2000/svg"
 width="305.000000pt" height="305.000000pt" viewBox="0 0 305.000000 305.000000"
 preserveAspectRatio="xMidYMid meet">
<metadata>
Created by potrace 1.11, written by Peter Selinger 2001-2013
</metadata>
<g transform="translate(0.000000,305.000000) scale(0.100000,-0.100000)"
fill="#000000" stroke="none">
<path d="M1418 2300 c-15 -4 -29 -5 -32 -2 -3 3 -6 1 -6 -5 0 -12 -53 -30
-107 -35 -13 -1 -23 -6 -23 -11 0 -5 -7 -4 -16 4 -9 7 -18 9 -22 3 -4 -5 -16
-11 -27 -12 -11 -2 -23 -9 -27 -15 -6 -9 -8 -8 -8 2 0 11 -3 11 -15 1 -8 -7
-15 -19 -15 -28 0 -8 -3 -12 -7 -9 -3 4 -12 2 -19 -4 -8 -6 -20 -9 -27 -6 -13
5 -140 -96 -133 -104 1 -2 -6 -12 -16 -21 -10 -10 -18 -15 -18 -11 0 3 -9 -4
-19 -16 -11 -12 -22 -22 -25 -21 -4 0 -14 -4 -24 -9 -9 -6 -13 -11 -8 -11 5 0
0 -10 -11 -22 -11 -13 -23 -36 -27 -52 -4 -16 -15 -30 -26 -33 -11 -3 -20 -14
-20 -25 0 -10 -4 -17 -8 -14 -10 6 -35 -82 -27 -94 3 -5 -1 -25 -9 -44 -8 -19
-11 -38 -8 -42 4 -5 0 -3 -8 3 -24 18 -109 45 -120 38 -6 -3 -10 -2 -10 3 0 5
-19 9 -41 10 -23 1 -48 7 -55 12 -8 8 -14 8 -19 0 -5 -8 -11 -8 -21 1 -11 9
-14 8 -14 -2 0 -10 -3 -10 -12 -1 -7 7 -17 8 -29 2 -12 -7 -20 -6 -24 0 -4 7
-11 8 -18 2 -7 -6 -32 -12 -56 -15 -24 -2 -46 -9 -50 -13 -5 -8 -13 -10 -63
-16 -10 -1 -20 -8 -22 -15 -3 -7 -12 -13 -20 -13 -17 0 -68 -47 -84 -77 -21
-39 -12 -86 26 -125 20 -21 42 -38 48 -38 7 0 14 -3 16 -7 6 -14 88 -52 88
-42 0 6 5 7 12 2 29 -18 77 -30 91 -21 10 5 18 4 22 -2 8 -13 175 -11 175 2 0
5 9 4 20 -2 14 -7 20 -7 20 0 0 5 11 10 25 10 14 0 25 4 25 9 0 4 11 7 25 6
13 -2 29 3 35 10 14 17 43 8 36 -11 -3 -8 0 -14 8 -14 15 0 16 -41 1 -52 -6
-5 -4 -8 5 -8 13 0 13 -1 0 -10 -10 -6 -11 -10 -2 -10 6 0 12 -8 12 -18 0 -21
37 -68 51 -65 9 3 10 -1 13 -50 1 -16 13 -37 29 -51 15 -13 24 -26 20 -30 -3
-3 1 -6 11 -6 9 0 14 -4 11 -10 -3 -5 0 -7 8 -4 8 3 17 -2 20 -10 4 -9 14 -16
22 -16 9 0 13 -4 10 -10 -3 -5 1 -10 9 -10 9 0 16 -7 16 -16 0 -8 4 -12 10 -9
5 3 8 0 6 -7 -7 -19 62 -73 90 -70 13 1 24 -3 24 -8 0 -6 6 -10 14 -10 8 0 17
-12 21 -27 4 -16 9 -23 12 -17 2 7 20 3 51 -12 26 -12 49 -19 52 -14 6 10 23
8 61 -8 14 -5 40 -13 58 -15 18 -3 39 -11 47 -18 10 -8 52 -13 118 -14 57 -1
108 -5 115 -9 6 -4 11 -2 11 3 0 6 9 11 21 11 11 0 30 5 42 12 12 7 30 13 39
15 9 1 35 9 57 17 23 7 41 9 41 4 0 -5 5 -6 10 -3 9 6 32 11 77 19 7 1 21 12
31 24 11 12 24 22 31 22 6 0 11 4 11 9 0 5 8 7 18 4 10 -2 28 5 41 16 13 12
28 21 33 21 4 0 7 6 5 13 -1 6 4 11 11 10 6 -2 12 6 12 18 0 11 5 17 10 14 6
-3 10 2 10 11 0 10 3 14 6 11 4 -3 15 5 26 18 11 14 26 25 33 25 8 0 27 17 42
38 15 20 31 38 35 40 4 2 4 10 2 17 -3 8 6 26 20 40 31 31 59 93 52 117 -2 10
-1 18 4 18 4 0 8 6 7 13 -1 45 3 59 16 48 8 -6 17 -8 20 -4 4 3 7 1 7 -6 0 -8
7 -11 15 -7 8 3 15 1 15 -4 0 -6 9 -10 19 -10 11 0 23 -4 26 -10 3 -5 19 -10
35 -10 16 0 40 -4 54 -10 14 -5 26 -6 26 -1 0 5 18 5 40 1 22 -4 40 -3 40 2 0
5 9 4 20 -2 11 -6 20 -7 20 -3 0 4 28 9 61 10 34 1 67 7 74 13 10 8 15 8 20
-1 4 -6 10 -7 14 -2 3 5 28 20 55 33 54 26 70 39 104 87 14 20 19 34 12 38 -7
4 -8 11 -1 18 6 8 5 19 -5 31 -7 10 -11 22 -9 26 2 3 -5 13 -16 21 -12 8 -33
24 -47 36 -15 13 -35 23 -44 23 -10 0 -18 4 -18 9 0 8 -45 20 -130 35 -14 3
-26 5 -27 7 -8 6 -30 4 -45 -3 -12 -6 -18 -5 -18 2 0 7 -6 7 -21 0 -15 -8 -24
-8 -34 0 -9 8 -15 8 -20 0 -5 -8 -10 -8 -20 0 -9 7 -15 7 -19 1 -4 -5 -15 -8
-26 -6 -11 2 -22 -1 -26 -7 -4 -6 -10 -5 -15 3 -6 10 -9 11 -9 2 0 -7 -10 -13
-22 -13 -12 0 -30 -7 -40 -17 -14 -13 -18 -13 -18 -2 -1 10 -5 8 -15 -5 -18
-24 -32 -13 -37 26 -2 15 -7 30 -11 34 -4 4 -2 13 4 21 8 9 8 17 0 26 -6 8 -8
17 -4 20 3 4 2 7 -3 7 -5 0 -11 10 -11 22 -1 13 -8 27 -16 33 -20 14 -39 54
-32 65 3 6 1 10 -5 10 -6 0 -9 4 -5 9 3 6 -3 14 -12 20 -10 6 -14 11 -10 11
11 0 -40 50 -52 50 -5 0 -16 9 -24 20 -8 11 -17 17 -20 13 -4 -3 -7 -1 -7 6 0
7 -11 22 -25 33 -14 11 -25 25 -26 31 0 14 -53 58 -72 61 -6 1 -18 6 -26 10
-10 7 -12 5 -6 -3 4 -7 -4 -5 -19 4 -15 10 -24 20 -21 23 16 16 -66 46 -119
44 -16 -1 -34 2 -40 7 -6 5 -32 12 -58 16 -31 5 -48 12 -48 21 0 9 -13 15 -35
16 -19 1 -48 2 -65 3 -21 1 -30 -3 -31 -14 0 -10 -2 -12 -6 -3 -2 6 -9 9 -14
6 -6 -3 -15 -2 -22 3 -15 12 -65 13 -99 3z"/>
</g>
</svg>
